<?xml version="1.0" encoding="UTF-8"?>
<svg xmlns="http://www.w3.org/2000/svg" width="28" height="28">
  <path d="M28 14.31c0-.92-.08-1.8-.23-2.64H14.3v5.26h7.72a6.5 6.5 0 0 1-2.86 4.17v3.5h4.6c2.7-2.43 4.24-6.03 4.24-10.29Z" fill="#4285F4"></path>
  <path d="M14.3 28c3.87 0 7.1-1.26 9.46-3.4l-4.6-3.5a8.77 8.77 0 0 1-4.85 1.36 8.52 8.52 0 0 1-8.03-5.79H1.54v3.6A14.32 14.32 0 0 0 14.3 28Z" fill="#34A853"></path>
  <path d="M6.28 16.67a7.97 7.97 0 0 1 0-5.34v-3.6H1.54a13.6 13.6 0 0 0 0 12.55l4.74-3.6Z" fill="#FBBC05"></path>
  <path d="M14.3 5.54c2.12 0 4 .71 5.49 2.1l4.08-3.99A13.84 13.84 0 0 0 14.3 0 14.32 14.32 0 0 0 1.54 7.72l4.74 3.6a8.52 8.52 0 0 1 8.03-5.78Z" fill="#EA4335"></path>
</svg>
